<?xml version="1.0" encoding="UTF-8"?>
<svg width="72px" height="78px" viewBox="0 0 72 78" version="1.1" xmlns="http://www.w3.org/2000/svg" xmlns:xlink="http://www.w3.org/1999/xlink">
    <!-- Generator: Sketch 50.2 (55047) - http://www.bohemiancoding.com/sketch -->
    <title>icon</title>
    <desc>Created with Sketch.</desc>
    <defs></defs>
    <g id="Example---Home-Examples" stroke="none" stroke-width="1" fill="none" fill-rule="evenodd">
        <g id="Home-example,-v2" transform="translate(-1178.000000, -1277.000000)" stroke="#FFFFFF" stroke-width="2">
            <g id="learn" transform="translate(80.000000, 921.000000)">
                <g id="3-columns" transform="translate(0.000000, 161.000000)">
                    <g id="3" transform="translate(908.000000, 24.000000)">
                        <g id="icon" transform="translate(191.089431, 172.654391)">
                            <g id="Group-4">
                                <polygon id="Stroke-1" points="0 74.9971671 69.1253956 74.9971671 69.1253956 0 0 0"></polygon>
                                <path d="M0,9.67705382 L69.1253956,9.67705382" id="Stroke-3"></path>
                            </g>
                            <path d="M3.70314619,4.83852691 L6.17191032,4.83852691" id="Stroke-5"></path>
                            <path d="M8.64067445,4.83852691 L11.1094386,4.83852691" id="Stroke-6"></path>
                            <path d="M13.5782027,4.83852691 L16.0469668,4.83852691" id="Stroke-7"></path>
                            <path d="M19.750113,0 L19.750113,9.67705382" id="Stroke-8"></path>
                            <path d="M23.4532592,4.83852691 L65.4222494,4.83852691" id="Stroke-10"></path>
                            <polygon id="Stroke-11" points="4.93752826 41.1274788 64.1878673 41.1274788 64.1878673 14.5155807 4.93752826 14.5155807"></polygon>
                            <polygon id="Stroke-12" points="46.9065184 55.6430595 64.1878673 55.6430595 64.1878673 45.9660057 46.9065184 45.9660057"></polygon>
                            <polygon id="Stroke-13" points="46.9065184 70.1586402 64.1878673 70.1586402 64.1878673 60.4815864 46.9065184 60.4815864"></polygon>
                            <path d="M3.70314619,60.4815864 L43.2033722,60.4815864" id="Stroke-14"></path>
                            <path d="M3.70314619,65.3201133 L18.515731,65.3201133" id="Stroke-15"></path>
                            <path d="M20.9844951,65.3201133 L43.2033722,65.3201133" id="Stroke-16"></path>
                            <path d="M3.70314619,55.6430595 L25.9220233,55.6430595" id="Stroke-17"></path>
                            <path d="M28.3907875,55.6430595 L43.2033722,55.6430595" id="Stroke-18"></path>
                            <path d="M3.70314619,70.1586402 L43.2033722,70.1586402" id="Stroke-19"></path>
                            <polygon id="Stroke-20" points="29.6251695 33.8696884 28.3907875 33.8696884 28.3907875 21.7733711 29.6251695 21.7733711 40.7346081 27.8215297"></polygon>
                            <polygon id="Stroke-21" points="4.93752826 50.8045326 41.9689902 50.8045326 41.9689902 45.9660057 4.93752826 45.9660057"></polygon>
                        </g>
                    </g>
                </g>
            </g>
        </g>
    </g>
</svg>