<?xml version="1.0" encoding="UTF-8"?>
<svg width="68px" height="64px" viewBox="0 0 68 64" version="1.1" xmlns="http://www.w3.org/2000/svg" xmlns:xlink="http://www.w3.org/1999/xlink">
    <!-- Generator: Sketch 50.2 (55047) - http://www.bohemiancoding.com/sketch -->
    <title>icon</title>
    <desc>Created with Sketch.</desc>
    <defs></defs>
    <g id="Example---Home-Examples" stroke="none" stroke-width="1" fill="none" fill-rule="evenodd">
        <g id="Home-example,-v2" transform="translate(-1128.000000, -2489.000000)" stroke="#E2C01A" stroke-width="2">
            <g id="solutions" transform="translate(-1.000000, 2330.000000)">
                <g id="3" transform="translate(1130.000000, 160.000000)">
                    <g id="icon">
                        <g id="Group-5" transform="translate(3.193548, 0.000000)">
                            <polyline id="Stroke-1" points="59.6129032 22.4482759 59.6129032 62 0 62 0 51.3103448"></polyline>
                            <polyline id="Stroke-3" points="0 38.4827586 0 0 59.6129032 0 59.6129032 9.62068966"></polyline>
                        </g>
                        <path d="M43.6451613,35.2758621 L60.6774194,18.1724138" id="Stroke-6"></path>
                        <path d="M27.6774194,24.5862069 L38.3225806,35.2758621" id="Stroke-7"></path>
                        <path d="M5.32258065,42.7586207 L23.4193548,24.5862069" id="Stroke-8"></path>
                        <g id="Group-53" transform="translate(0.000000, 6.413793)">
                            <path d="M6.38709677,38.4827586 C6.38709677,40.2540345 4.9563871,41.6896552 3.19354839,41.6896552 C1.43070968,41.6896552 0,40.2540345 0,38.4827586 C0,36.7114828 1.43070968,35.2758621 3.19354839,35.2758621 C4.9563871,35.2758621 6.38709677,36.7114828 6.38709677,38.4827586 Z" id="Stroke-9"></path>
                            <path d="M28.7419355,16.0344828 C28.7419355,17.8057586 27.3112258,19.2413793 25.5483871,19.2413793 C23.7855484,19.2413793 22.3548387,17.8057586 22.3548387,16.0344828 C22.3548387,14.2632069 23.7855484,12.8275862 25.5483871,12.8275862 C27.3112258,12.8275862 28.7419355,14.2632069 28.7419355,16.0344828 Z" id="Stroke-11"></path>
                            <path d="M44.7096774,31 C44.7096774,32.7712759 43.2789677,34.2068966 41.516129,34.2068966 C39.7532903,34.2068966 38.3225806,32.7712759 38.3225806,31 C38.3225806,29.2287241 39.7532903,27.7931034 41.516129,27.7931034 C43.2789677,27.7931034 44.7096774,29.2287241 44.7096774,31 Z" id="Stroke-13"></path>
                            <path d="M66,9.62068966 C66,11.3919655 64.5692903,12.8275862 62.8064516,12.8275862 C61.0436129,12.8275862 59.6129032,11.3919655 59.6129032,9.62068966 C59.6129032,7.84941379 61.0436129,6.4137931 62.8064516,6.4137931 C64.5692903,6.4137931 66,7.84941379 66,9.62068966 Z" id="Stroke-15"></path>
                            <path d="M10.6451613,0 L8.51612903,0" id="Stroke-17"></path>
                            <path d="M10.6451613,4.27586207 L8.51612903,4.27586207" id="Stroke-19"></path>
                            <path d="M7.4516129,43.8275862 L7.4516129,52.3793103" id="Stroke-21"></path>
                            <path d="M11.7096774,35.2758621 L11.7096774,52.3793103" id="Stroke-23"></path>
                            <path d="M37.2580645,36.3448276 L37.2580645,52.3793103" id="Stroke-25"></path>
                            <path d="M41.516129,37.4137931 L41.516129,52.3793103" id="Stroke-27"></path>
                            <path d="M45.7741935,36.3448276 L45.7741935,52.3793103" id="Stroke-29"></path>
                            <path d="M50.0322581,27.7931034 L50.0322581,52.3793103" id="Stroke-31"></path>
                            <path d="M54.2903226,23.5172414 L54.2903226,52.3793103" id="Stroke-33"></path>
                            <path d="M58.5483871,19.2413793 L58.5483871,52.3793103" id="Stroke-35"></path>
                            <path d="M15.9677419,31 L15.9677419,52.3793103" id="Stroke-37"></path>
                            <path d="M20.2258065,26.7241379 L20.2258065,52.3793103" id="Stroke-39"></path>
                            <path d="M33,28.862069 L33,52.3793103" id="Stroke-41"></path>
                            <path d="M28.7419355,24.5862069 L28.7419355,52.3793103" id="Stroke-43"></path>
                            <path d="M24.483871,22.4482759 L24.483871,52.3793103" id="Stroke-45"></path>
                            <path d="M27.6774194,0 L55.3548387,0" id="Stroke-47"></path>
                            <path d="M12.7741935,0 L25.5483871,0" id="Stroke-49"></path>
                            <path d="M12.7741935,4.27586207 L44.7096774,4.27586207" id="Stroke-51"></path>
                        </g>
                    </g>
                </g>
            </g>
        </g>
    </g>
</svg>