<?xml version="1.0" encoding="UTF-8"?>
<svg width="68px" height="68px" viewBox="0 0 68 68" version="1.1" xmlns="http://www.w3.org/2000/svg" xmlns:xlink="http://www.w3.org/1999/xlink">
    <!-- Generator: Sketch 50.2 (55047) - http://www.bohemiancoding.com/sketch -->
    <title>icon</title>
    <desc>Created with Sketch.</desc>
    <defs></defs>
    <g id="Example---Home-Examples" stroke="none" stroke-width="1" fill="none" fill-rule="evenodd" stroke-linejoin="round">
        <g id="Home-example,-v2" transform="translate(-159.000000, -2485.000000)" stroke="#E2C01A" stroke-width="2">
            <g id="solutions" transform="translate(-1.000000, 2330.000000)">
                <g id="1" transform="translate(159.000000, 156.000000)">
                    <g id="icon" transform="translate(2.000000, 0.000000)">
                        <path d="M22.3548387,56.4193548 L9.58064516,43.6451613 C9.58064516,43.6451613 36.1935484,0 66,0 C66,29.8064516 22.3548387,56.4193548 22.3548387,56.4193548 Z" id="Stroke-1"></path>
                        <polyline id="Stroke-3" points="20.2258065 54.2903226 17.0322581 57.483871 8.51612903 48.9677419 11.7096774 45.7741935"></polyline>
                        <path d="M6.38709677,52.1612903 C0,58.5483871 0,66 0,66 C0,66 7.4516129,66 13.8387097,59.6129032" id="Stroke-5"></path>
                        <path d="M52.1612903,18.0967742 C52.1612903,20.4482903 50.2547419,22.3548387 47.9032258,22.3548387 C45.5517097,22.3548387 43.6451613,20.4482903 43.6451613,18.0967742 C43.6451613,15.7452581 45.5517097,13.8387097 47.9032258,13.8387097 C50.2547419,13.8387097 52.1612903,15.7452581 52.1612903,18.0967742 Z" id="Stroke-7"></path>
                        <path d="M42.5806452,27.6774194 C42.5806452,30.0289355 40.6740968,31.9354839 38.3225806,31.9354839 C35.9710645,31.9354839 34.0645161,30.0289355 34.0645161,27.6774194 C34.0645161,25.3259032 35.9710645,23.4193548 38.3225806,23.4193548 C40.6740968,23.4193548 42.5806452,25.3259032 42.5806452,27.6774194 Z" id="Stroke-9"></path>
                        <path d="M33,37.2580645 C33,39.6095806 31.0934516,41.516129 28.7419355,41.516129 C26.3904194,41.516129 24.483871,39.6095806 24.483871,37.2580645 C24.483871,34.9065484 26.3904194,33 28.7419355,33 C31.0934516,33 33,34.9065484 33,37.2580645 Z" id="Stroke-11"></path>
                        <polyline id="Stroke-13" points="56.4193548 25.5483871 38.3225806 66 27.6774194 66 27.6774194 57.483871"></polyline>
                        <polyline id="Stroke-15" points="40.4516129 9.58064516 0 27.6774194 0 38.3225806 8.51612903 38.3225806"></polyline>
                        <path d="M63.8709677,10.6451613 C59.1679355,10.6451613 55.3548387,6.83206452 55.3548387,2.12903226" id="Stroke-17"></path>
                    </g>
                </g>
            </g>
        </g>
    </g>
</svg>