<?xml version="1.0" encoding="UTF-8"?>
<svg width="62px" height="68px" viewBox="0 0 62 68" version="1.1" xmlns="http://www.w3.org/2000/svg" xmlns:xlink="http://www.w3.org/1999/xlink">
    <!-- Generator: Sketch 50.2 (55047) - http://www.bohemiancoding.com/sketch -->
    <title>icon</title>
    <desc>Created with Sketch.</desc>
    <defs></defs>
    <g id="Example---Home-Examples" stroke="none" stroke-width="1" fill="none" fill-rule="evenodd">
        <g id="Home-example,-v2" transform="translate(-626.000000, -2597.000000)" stroke="#E2C01A" stroke-width="2">
            <g id="solutions" transform="translate(-1.000000, 2330.000000)">
                <g id="2" transform="translate(511.000000, 234.000000)">
                    <g id="icon" transform="translate(117.000000, 34.000000)">
                        <path d="M58.9285714,37.2580645 C58.9285714,53.132129 45.9771429,66 30,66 C14.0228571,66 1.07142857,53.132129 1.07142857,37.2580645 C1.07142857,21.384 14.0228571,8.51612903 30,8.51612903 C45.9771429,8.51612903 58.9285714,21.384 58.9285714,37.2580645 Z" id="Stroke-1"></path>
                        <path d="M34.2857143,4.25806452 C34.2857143,6.60958065 32.3667857,8.51612903 30,8.51612903 C27.6332143,8.51612903 25.7142857,6.60958065 25.7142857,4.25806452 C25.7142857,1.90654839 27.6332143,0 30,0 C32.3667857,0 34.2857143,1.90654839 34.2857143,4.25806452 Z" id="Stroke-3"></path>
                        <path d="M30,11.7096774 L30,13.8387097" id="Stroke-5"></path>
                        <path d="M27.8571429,39.3870968 L15,52.1612903" id="Stroke-7"></path>
                        <path d="M6.42857143,13.8387097 L9.645,17.0343871" id="Stroke-9"></path>
                        <path d="M4.28571429,37.2580645 L6.42857143,37.2580645" id="Stroke-11"></path>
                        <path d="M55.7142857,37.2580645 L53.5714286,37.2580645" id="Stroke-13"></path>
                        <path d="M30,62.8064516 L30,60.6774194" id="Stroke-15"></path>
                        <path d="M33.2142857,37.2580645 C33.2142857,39.0219677 31.7753571,40.4516129 30,40.4516129 C28.2246429,40.4516129 26.7857143,39.0219677 26.7857143,37.2580645 C26.7857143,35.4941613 28.2246429,34.0645161 30,34.0645161 C31.7753571,34.0645161 33.2142857,35.4941613 33.2142857,37.2580645 Z" id="Stroke-17"></path>
                        <polygon id="Stroke-19" stroke-linejoin="round" points="9.64285714 10.6451613 3.21428571 17.0322581 0 13.8387097 6.42857143 7.4516129"></polygon>
                        <path d="M53.5735714,13.8387097 L50.3571429,17.0343871" id="Stroke-21"></path>
                        <polygon id="Stroke-23" stroke-linejoin="round" points="50.3571429 10.6451613 56.7857143 17.0322581 60 13.8387097 53.5714286 7.4516129"></polygon>
                        <path d="M30,17.0322581 C41.2425,17.0322581 50.3571429,26.0880968 50.3571429,37.2580645 C50.3571429,48.4280323 41.2425,57.483871 30,57.483871 C24.3803571,57.483871 19.2921429,55.2217742 15.6075,51.5630323" id="Stroke-25"></path>
                        <path d="M30,23.4193548 C37.6928571,23.4193548 43.9285714,29.6148387 43.9285714,37.2580645 C43.9285714,44.9012903 37.6928571,51.0967742 30,51.0967742 C26.1546429,51.0967742 22.6735714,49.5479032 20.1525,47.0441613" id="Stroke-27"></path>
                        <path d="M8.57142857,37.2580645 L10.7142857,37.2580645" id="Stroke-29"></path>
                        <path d="M12.8571429,37.2580645 L15,37.2580645" id="Stroke-31"></path>
                        <path d="M17.1428571,37.2580645 L19.2857143,37.2580645" id="Stroke-33"></path>
                        <path d="M21.4285714,37.2580645 L23.5714286,37.2580645" id="Stroke-35"></path>
                        <path d="M30,8.51612903 L30,4.25806452" id="Stroke-37"></path>
                    </g>
                </g>
            </g>
        </g>
    </g>
</svg>