<?xml version="1.0" encoding="UTF-8"?>
<svg width="180px" height="40px" viewBox="0 0 180 40" version="1.1" xmlns="http://www.w3.org/2000/svg" xmlns:xlink="http://www.w3.org/1999/xlink">
    <!-- Generator: Sketch 50.2 (55047) - http://www.bohemiancoding.com/sketch -->
    <title>Group</title>
    <desc>Created with Sketch.</desc>
    <defs>
        <polygon id="path-1" points="0 39.2857143 179.610714 39.2857143 179.610714 0.195 0 0.195"></polygon>
    </defs>
    <g stroke="none" stroke-width="1" fill="none" fill-rule="evenodd">
        <g transform="translate(-80.000000, -43.000000)">
            <g id="hero">
                <g id="nav" transform="translate(80.000000, 43.000000)">
                    <g id="Group">
                        <g id="logo">
                            <polygon id="Fill-1" fill="#FFFFFF" points="58.0000714 11.8785 58.0000714 17.6677857 67.8757857 17.6677857 67.8757857 22.4899286 58.0000714 22.4899286 58.0000714 33.6827857 52.5386429 33.6827857 52.5386429 6.88278571 69.7729286 6.88278571 69.7729286 11.8785"></polygon>
                            <path d="M77.1710714,23.4584286 L84.3946429,23.4584286 L80.7925,12.382 L77.1710714,23.4584286 Z M68.4567857,33.6827143 L77.3260714,6.88271429 L84.4332143,6.88271429 L93.3217857,33.6827143 L87.7253571,33.6827143 L85.9432143,28.2412857 L75.6225,28.2412857 L73.8796429,33.6827143 L68.4567857,33.6827143 Z" id="Fill-2" fill="#FFFFFF"></path>
                            <g id="Group-12" transform="translate(0.000000, 0.519571)">
                                <path d="M111.678929,24.9135714 C111.678929,23.7128571 111.2725,22.865 110.459643,22.3678571 C109.645357,21.8707143 108.1225,21.6221429 105.889643,21.6221429 L102.190357,21.6221429 L102.190357,28.3221429 L104.959643,28.3221429 C107.089643,28.3221429 108.5575,28.2192857 109.364643,28.0121429 C110.171786,27.8064286 110.758929,27.4571429 111.126786,26.9664286 C111.494643,26.4764286 111.678929,25.7914286 111.678929,24.9135714 Z M110.284643,13.8185714 C110.284643,12.7985714 109.909643,12.0921429 109.1625,11.6978571 C108.413214,11.3042857 107.251071,11.1071429 105.676071,11.1071429 L102.190357,11.1071429 L102.190357,16.8585714 L105.521071,16.8585714 C107.135357,16.8585714 108.331786,16.6328571 109.113214,16.18 C109.893929,15.7292857 110.284643,14.9414286 110.284643,13.8185714 Z M117.256071,25.3978571 C117.256071,28.0828571 116.333214,30.0485714 114.486786,31.295 C112.641071,32.5407143 110.078214,33.1635714 106.798929,33.1635714 L96.7289286,33.1635714 L96.7289286,6.36285714 L106.198214,6.36285714 C109.633214,6.36285714 112.091786,6.86285714 113.576786,7.86357143 C115.061071,8.86428571 115.803214,10.4485714 115.803214,12.6178571 C115.803214,14.2828571 115.399643,15.6321429 114.593214,16.6642857 C113.786071,17.6971429 112.524643,18.3878571 110.8075,18.7371429 C113.053929,19.0457143 114.690357,19.7564286 115.716071,20.8671429 C116.743214,21.9771429 117.256071,23.4878571 117.256071,25.3978571 Z" id="Fill-3" fill="#FFFFFF"></path>
                                <path d="M135.436643,14.5543571 C135.436643,13.1857857 135.090929,12.2686429 134.400929,11.8036429 C133.7095,11.3393571 132.570214,11.1072143 130.983071,11.1072143 L126.741643,11.1072143 L126.741643,18.2529286 L130.7495,18.2529286 C131.975929,18.2529286 132.9195,18.1365 133.577357,17.9036429 C134.235929,17.6715 134.710214,17.3100714 135.001643,16.8200714 C135.290929,16.3286429 135.436643,15.5743571 135.436643,14.5543571 Z M136.345929,33.1636429 L129.510929,23.0165 L126.741643,23.0165 L126.741643,33.1636429 L121.280929,33.1636429 L121.280929,6.36292857 L131.020929,6.36292857 C134.468071,6.36292857 136.988786,6.98221429 138.583071,8.22221429 C140.177357,9.4615 140.9745,11.4943571 140.9745,14.3215 C140.9745,16.6065 140.493786,18.4265 139.531643,19.7822143 C138.570929,21.1379286 137.205214,22.0029286 135.436643,22.3772143 L142.600929,33.1636429 L136.345929,33.1636429 Z" id="Fill-5" fill="#FFFFFF"></path>
                                <mask id="mask-2" fill="white">
                                    <use xlink:href="#path-1"></use>
                                </mask>
                                <g id="Clip-8"></g>
                                <polygon id="Fill-7" fill="#FFFFFF" mask="url(#mask-2)" points="146.625 33.1635714 152.112143 33.1635714 152.112143 6.36285714 146.625 6.36285714"></polygon>
                                <path d="M179.610714,28.7284286 C178.461429,30.4455714 177.051429,31.7084286 175.378571,32.5148571 C173.707143,33.3212857 171.650714,33.7248571 169.211429,33.7248571 C160.91,33.7248571 156.760714,29.0712857 156.760714,19.7627143 C156.760714,14.9991429 157.812143,11.4812857 159.917143,9.20914286 C162.020714,6.937 165.055,5.80128571 169.018571,5.80128571 C171.638571,5.80128571 173.775,6.24342857 175.427857,7.12771429 C177.08,8.012 178.339286,9.17057143 179.203571,10.6034286 L174.962857,13.8955714 C174.343571,12.9662857 173.775,12.2941429 173.258571,11.882 C172.742857,11.4691429 172.155,11.1584286 171.497143,10.952 C170.838571,10.7455714 170.050714,10.6427143 169.133571,10.6427143 C166.94,10.6427143 165.267143,11.3427143 164.118571,12.7427143 C162.969286,14.1441429 162.395,16.4841429 162.395,19.7627143 C162.395,22.822 162.934286,25.1077143 164.012857,26.6177143 C165.090714,28.1284286 166.810714,28.8841429 169.172857,28.8841429 C170.760714,28.8841429 171.997143,28.5805714 172.880714,27.9734286 C173.765,27.367 174.568571,26.5605714 175.292143,25.5534286 L179.610714,28.7284286 Z" id="Fill-9" fill="#FFFFFF" mask="url(#mask-2)"></path>
                                <path d="M14.5332857,29.8473571 L22.3582857,29.8473571 L22.3582857,25.3323571 L14.5332857,25.3323571 L14.5332857,14.1580714 L22.3582857,14.1580714 L22.3582857,9.64307143 L14.5332857,9.64307143 L14.5332857,0.868071429 C6.17185714,3.08378571 -0.000285714286,10.6816429 -0.000285714286,19.7402143 C-0.000285714286,28.7987857 6.17185714,36.3966429 14.5332857,38.6123571 L14.5332857,29.8473571 Z" id="Fill-10" fill="#E2C01A" mask="url(#mask-2)"></path>
                                <path d="M19.5455,0.194714286 C18.9705,0.194714286 18.4047857,0.231857143 17.8426429,0.280428571 L17.8426429,6.334 L25.6669286,6.334 L25.6669286,17.4675714 L17.8426429,17.4675714 L17.8426429,22.0232857 L25.6669286,22.0232857 L25.6669286,33.1561429 L17.8426429,33.1561429 L17.8426429,39.1997143 C18.4047857,39.2482857 18.9705,39.2861429 19.5455,39.2861429 C30.3405,39.2861429 39.0912143,30.5354286 39.0912143,19.7397143 C39.0912143,8.94542857 30.3405,0.194714286 19.5455,0.194714286" id="Fill-11" fill="#E2C01A" mask="url(#mask-2)"></path>
                            </g>
                        </g>
                    </g>
                </g>
            </g>
        </g>
    </g>
</svg>